<?xml version="1.0" standalone="no"?>
<!DOCTYPE svg PUBLIC "-//W3C//DTD SVG 20010904//EN"
 "http://www.w3.org/TR/2001/REC-SVG-20010904/DTD/svg10.dtd">
<svg version="1.0" xmlns="http://www.w3.org/2000/svg"
 width="240.000000pt" height="240.000000pt" viewBox="0 0 240.000000 240.000000"
 preserveAspectRatio="xMidYMid meet">
<metadata>
Created by potrace 1.14, written by Peter Selinger 2001-2017
</metadata>
<g transform="translate(0.000000,240.000000) scale(0.100000,-0.100000)"
fill="#000000" stroke="none">
<path fill="#ffffff" d="M1085 2383 c-121 -44 -196 -110 -249 -222 l-31 -66 -3 -197 -4 -198
-198 0 -198 0 -6 -37 c-3 -21 -47 -384 -96 -808 -50 -424 -93 -789 -96 -812
l-6 -43 1002 0 1002 0 -6 43 c-3 23 -46 388 -96 812 -49 424 -93 787 -96 808
l-6 37 -198 0 -198 0 -4 198 -3 198 -37 76 c-45 91 -104 148 -196 191 -84 39
-199 48 -277 20z m249 -117 c62 -31 109 -80 140 -145 19 -41 21 -68 24 -233
l4 -188 -301 0 -301 0 0 168 c0 188 10 242 59 309 84 116 243 154 375 89z
m-534 -850 c0 -89 11 -116 50 -116 39 0 50 27 50 116 l0 84 300 0 300 0 0 -84
c0 -89 11 -116 50 -116 39 0 50 27 50 116 l0 84 109 0 109 0 6 -27 c3 -16 12
-91 21 -168 8 -77 18 -155 21 -172 l5 -33 -671 0 -671 0 5 33 c3 17 13 95 21
172 9 77 18 152 21 168 l6 27 109 0 109 0 0 -84z"/>
</g>
</svg>
