<?xml version="1.0" encoding="iso-8859-1"?>
<!-- Generator: Adobe Illustrator 18.1.0, SVG Export Plug-In . SVG Version: 6.00 Build 0)  -->
<svg version="1.1" id="&#x421;&#x43B;&#x43E;&#x439;_1"
	 xmlns="http://www.w3.org/2000/svg" xmlns:xlink="http://www.w3.org/1999/xlink" x="0px" y="0px" viewBox="0 0 708 708"
	 enable-background="new 0 0 708 708" xml:space="preserve">
<g>
	<path fill="#F68235" d="M279.2,466.2c-20.5,0-37.4,16.8-37.4,37.3c0,20.6,16.9,37.4,37.4,37.4s37.3-16.8,37.3-37.4
		C316.6,483,299.8,466.2,279.2,466.2L279.2,466.2z M167.1,167.1v37.4h37.4l67.2,142l-26.2,44.9c-1.8,5.6-3.7,13-3.7,18.6
		c0,20.6,16.9,37.4,37.4,37.4h224.3V410H286.7c-1.9,0-3.7-1.8-3.7-3.7v-1.8l16.8-31.8h138.4c14.9,0,26.1-7.5,31.8-18.7l67.3-121.5
		c3.7-3.7,3.7-5.7,3.7-9.4c0-11.1-7.5-18.6-18.7-18.6H245.6l-16.8-37.4H167.1z M466.2,466.2c-20.5,0-37.4,16.8-37.4,37.3
		c0,20.6,16.9,37.4,37.4,37.4c20.5,0,37.3-16.8,37.3-37.4C503.5,483,486.7,466.2,466.2,466.2L466.2,466.2z M466.2,466.2"/>
</g>
<g>
	<path fill="#F68235" d="M354,35c43.1,0,84.9,8.4,124.2,25.1c38,16.1,72.1,39.1,101.4,68.4c29.3,29.3,52.3,63.4,68.4,101.4
		C664.6,269.1,673,310.9,673,354s-8.4,84.9-25.1,124.2c-16.1,38-39.1,72.1-68.4,101.4c-29.3,29.3-63.4,52.3-101.4,68.4
		C438.9,664.6,397.1,673,354,673s-84.9-8.4-124.2-25.1c-38-16.1-72.1-39.1-101.4-68.4c-29.3-29.3-52.3-63.4-68.4-101.4
		C43.4,438.9,35,397.1,35,354s8.4-84.9,25.1-124.2c16.1-38,39.1-72.1,68.4-101.4c29.3-29.3,63.4-52.3,101.4-68.4
		C269.1,43.4,310.9,35,354,35 M354,0C158.5,0,0,158.5,0,354s158.5,354,354,354s354-158.5,354-354S549.5,0,354,0L354,0z"/>
</g>
</svg>
