<?xml version="1.0" encoding="iso-8859-1"?>
<!-- Generator: Adobe Illustrator 18.1.0, SVG Export Plug-In . SVG Version: 6.00 Build 0)  -->
<svg version="1.1" id="&#x421;&#x43B;&#x43E;&#x439;_1"
	 xmlns="http://www.w3.org/2000/svg" xmlns:xlink="http://www.w3.org/1999/xlink" x="0px" y="0px" viewBox="0 0 418.7 63.8"
	 enable-background="new 0 0 418.7 63.8" xml:space="preserve">
<image display="none" overflow="visible" width="4543" height="816" xlink:href="38C3402A.jpg"  transform="matrix(9.448818e-002 0 0 9.448824e-002 -7.7784 -4.5472)">
</image>
<g>
	<defs>
		<path id="SVGID_1_" d="M51.5,39.4c-4.9,7.8-12.8,11.7-23.9,11.7c-8.3,0-14.9-2.3-19.8-6.8c-2.6-2.4-4.6-5.3-6-8.7
			c-1.2-3-1.8-6.1-1.8-9.4C0,21.4,1.2,17,3.7,13C8.4,5.4,16.3,1.5,27.5,1.4c8.4,0,15,2.3,19.9,6.8c5.2,4.7,7.8,10.9,7.8,18.4
			C55.2,31.1,54,35.4,51.5,39.4L51.5,39.4z M39.1,13.6c-3.1-2.7-6.9-4-11.5-4.1c-4.6,0-8.4,1.4-11.4,4.1c-3.6,3.2-5.4,7.4-5.4,12.6
			c0,5.2,1.8,9.4,5.4,12.6c3,2.7,6.9,4.1,11.5,4.1c4.6,0,8.4-1.4,11.5-4.1c1.8-1.6,3.2-3.6,4.2-5.9c0.8-2.1,1.3-4.2,1.3-6.5
			C44.5,21,42.7,16.8,39.1,13.6L39.1,13.6z M115.1,48.2c0.3,0.4,0.9,0.7,1.8,0.9v1.1h-15.1v-1.1c1-0.2,1.5-0.7,1.5-1.5
			c0-0.5-0.6-1.3-1.7-2.5L74.6,17.4v29.2c0,0.7,0.2,1.3,0.5,1.7c0.3,0.4,0.9,0.7,1.8,0.9v1.1H62.7v-1.1c0.8-0.2,1.4-0.5,1.8-0.9
			c0.3-0.4,0.5-0.9,0.5-1.7V5.9c0-0.7-0.2-1.2-0.5-1.6c-0.3-0.4-0.9-0.7-1.8-0.9V2.3H79v1.1c-1,0.3-1.5,0.8-1.5,1.6
			c0,0.6,0.3,1.2,1,1.9L105,34.4V5.9c0-0.7-0.2-1.2-0.5-1.6c-0.3-0.4-0.9-0.7-1.8-0.9V2.3h14.1v1.1c-0.8,0.2-1.4,0.5-1.8,0.9
			c-0.3,0.4-0.5,0.9-0.5,1.6v40.6C114.6,47.3,114.7,47.8,115.1,48.2L115.1,48.2z M169.1,42.3c0.7,0,1.2-0.2,1.6-0.5
			c0.4-0.3,0.7-0.9,0.9-1.8h1.1v12.4h-1.1c-0.2-0.8-0.5-1.4-0.9-1.8c-0.4-0.3-0.9-0.5-1.6-0.5h-43.6v-1.1c0.8-0.2,1.4-0.5,1.8-0.9
			c0.3-0.4,0.5-0.9,0.5-1.7V5.9c0-0.7-0.2-1.3-0.5-1.7c-0.3-0.4-0.9-0.7-1.8-0.9V2.3h42.7c0.7,0,1.2-0.2,1.6-0.5
			c0.4-0.3,0.7-0.9,0.9-1.7h1.1v12.4h-1.1c-0.2-0.8-0.5-1.4-0.9-1.8c-0.4-0.3-0.9-0.5-1.6-0.5h-30v11.4h19.5c0.7,0,1.2-0.2,1.6-0.5
			c0.4-0.3,0.7-0.9,0.9-1.8h1.1v12.1h-1.1c-0.2-0.8-0.5-1.4-0.9-1.7c-0.4-0.3-0.9-0.5-1.6-0.5h-19.5v13.1H169.1L169.1,42.3z
			 M243.7,18.1c0-0.4,0.1-0.7,0.1-0.9c0-0.7-0.3-1.3-0.9-1.9c-0.6-0.6-1.6-1.3-3.1-2.2c-4.1-2.3-8.5-3.5-13.2-3.5
			c-5.5,0-9.9,1.4-13.1,4.1c-3.8,3.2-5.8,7.4-5.8,12.6c0,5.2,1.9,9.4,5.8,12.6c3.3,2.7,7.6,4.1,13.1,4.1c4.6,0,9-1.2,13.2-3.5
			c1.5-0.8,2.5-1.6,3.1-2.2c0.6-0.6,0.9-1.2,0.9-1.9c0-0.3,0-0.6-0.1-0.9l0.9-0.7l6.7,10l-0.9,0.6c-0.7-0.6-1.2-0.9-1.6-0.9
			c-0.4,0-1.6,0.6-3.6,1.7c-4,2.3-7.4,3.9-10.2,4.7c-2.8,0.8-6,1.2-9.8,1.2c-7.6,0-13.8-1.8-18.6-5.4c-2.9-2.1-5.1-4.7-6.8-7.8
			c-1.9-3.5-2.8-7.4-2.8-11.7c0-5.8,1.7-10.9,5.1-15.2c5.1-6.4,12.8-9.7,23.2-9.7c3.8,0,7.1,0.4,9.8,1.2c2.7,0.8,6.1,2.4,10.2,4.7
			c1.9,1.1,3.1,1.7,3.6,1.7c0.4,0,1-0.3,1.6-0.9l0.9,0.6l-6.7,10L243.7,18.1L243.7,18.1z M303.4,52.5c-0.2-0.8-0.5-1.4-0.9-1.8
			c-0.4-0.3-0.9-0.5-1.7-0.5h-42.2v-1.1c0.8-0.2,1.4-0.5,1.8-0.9c0.3-0.4,0.5-0.9,0.5-1.7V5.9c0-0.7-0.2-1.3-0.5-1.7
			c-0.3-0.4-0.9-0.7-1.8-0.9V2.3h15v1.1c-0.8,0.2-1.4,0.5-1.8,0.9c-0.3,0.4-0.5,0.9-0.5,1.7v36.4h29.5c0.7,0,1.3-0.2,1.7-0.5
			c0.4-0.3,0.7-0.9,0.9-1.8h1.1v12.4H303.4L303.4,52.5z M358.4,4.3c-0.3,0.4-0.5,0.9-0.5,1.7v26.9c0,5.1-0.9,8.9-2.8,11.4
			c-3.4,4.5-10.3,6.8-20.9,6.8c-7.6,0-13.5-1.2-17.5-3.7c-2.4-1.4-4-3.4-4.9-5.8c-0.9-2.4-1.3-5.3-1.3-8.7V5.9
			c0-0.7-0.2-1.3-0.5-1.7c-0.3-0.4-0.9-0.7-1.8-0.9V2.3h15v1.1c-0.8,0.2-1.4,0.5-1.7,0.9c-0.3,0.4-0.5,0.9-0.5,1.7v23.9
			c0,2.8,0.2,4.8,0.5,6.1c0.3,1.3,0.9,2.4,1.7,3.3c2.3,2.4,6.1,3.6,11.5,3.6c5.5,0,9.3-1.2,11.6-3.6c0.8-0.9,1.4-2,1.7-3.3
			c0.3-1.3,0.5-3.4,0.5-6.1V5.9c0-0.7-0.2-1.3-0.5-1.7c-0.3-0.4-0.9-0.7-1.8-0.9V2.3h14.1v1.1C359.3,3.6,358.7,3.9,358.4,4.3
			L358.4,4.3z M410.6,25.1c5.4,2,8.1,5.8,8.1,11.3c0,4.4-1.6,7.8-4.7,10.3c-1.6,1.2-3.4,2.1-5.5,2.7c-2.1,0.6-4.7,0.8-7.8,0.8h-32.8
			v-1.1c0.8-0.2,1.4-0.5,1.8-0.9c0.3-0.4,0.5-0.9,0.5-1.7V5.9c0-0.7-0.2-1.3-0.5-1.7c-0.3-0.4-0.9-0.7-1.8-0.9V2.3h32.5
			c3.1,0,5.6,0.2,7.5,0.7c1.9,0.5,3.6,1.3,5,2.4c2.8,2.2,4.3,5.4,4.3,9.6C417.1,19.7,414.9,23,410.6,25.1L410.6,25.1z M404.9,11.4
			c-1.2-0.9-3.2-1.3-5.9-1.3h-18.4v11.2H399c2.8,0,4.7-0.4,5.8-1.2c1.2-0.9,1.9-2.4,1.9-4.4C406.7,13.7,406.1,12.3,404.9,11.4
			L404.9,11.4z M405.5,30.6c-1.4-0.9-3.8-1.4-7.1-1.4h-17.8v13.1h17.8c3.3,0,5.7-0.5,7.1-1.4c1.7-1.1,2.5-2.8,2.5-5.2
			C408,33.4,407.2,31.7,405.5,30.6L405.5,30.6z M14.3,63.8c0-0.1-0.1-0.2-0.1-0.2c-0.1,0-0.2-0.1-0.3-0.1H8.5v-0.2
			c0.1,0,0.2-0.1,0.3-0.1c0-0.1,0.1-0.2,0.1-0.3v-5.5c0-0.1,0-0.2-0.1-0.3S8.7,57,8.5,56.9v-0.2h1.4v0.2c-0.1,0-0.2,0.1-0.2,0.1
			c0,0.1-0.1,0.2-0.1,0.3v5.5h4.3c0.1,0,0.2,0,0.3-0.1c0.1,0,0.1-0.1,0.1-0.2h0.2v1.3H14.3L14.3,63.8z M36.6,57.1
			c0,0.1-0.1,0.2-0.1,0.3v3.8c0,0.5,0,0.8-0.1,1.1c-0.2,0.4-0.5,0.8-1,1c-0.5,0.2-1.1,0.3-1.9,0.3c-1.2,0-2.1-0.2-2.5-0.7
			c-0.2-0.2-0.3-0.4-0.4-0.7c-0.1-0.2-0.1-0.6-0.1-1v-3.8c0-0.1,0-0.2-0.1-0.3c0-0.1-0.1-0.1-0.2-0.1v-0.2h1.4v0.2
			c-0.1,0-0.2,0.1-0.2,0.1c0,0.1-0.1,0.2-0.1,0.3V61c0,0.4,0,0.7,0.1,0.9c0,0.2,0.1,0.3,0.3,0.5c0.3,0.3,1,0.5,1.9,0.5
			c1,0,1.7-0.2,2-0.6c0.1-0.1,0.2-0.3,0.2-0.4c0-0.2,0.1-0.5,0.1-0.9v-3.7c0-0.1,0-0.2-0.1-0.3c0-0.1-0.1-0.1-0.2-0.1v-0.2h1.3v0.2
			C36.8,57,36.7,57,36.6,57.1L36.6,57.1z M59.3,63.3v0.2h-1.7v-0.2c0.2,0,0.2-0.1,0.2-0.2c0-0.1-0.1-0.2-0.3-0.4l-1.7-2.2l-1.7,2.2
			c-0.2,0.2-0.3,0.4-0.3,0.4c0,0.1,0.1,0.1,0.2,0.2v0.2h-1.6v-0.2c0.1,0,0.3-0.1,0.4-0.2c0.1-0.1,0.3-0.2,0.4-0.4l2.1-2.7l-1.7-2.1
			c-0.3-0.4-0.5-0.6-0.6-0.7C53.1,57,53,57,52.9,56.9v-0.2h1.7v0.2c-0.2,0-0.2,0.1-0.2,0.2c0,0.1,0.1,0.2,0.2,0.4l1.4,1.8l1.4-1.8
			c0.2-0.2,0.2-0.3,0.2-0.4c0-0.1-0.1-0.1-0.2-0.2v-0.2h1.6v0.2c-0.1,0-0.3,0.1-0.4,0.2c-0.1,0.1-0.3,0.3-0.6,0.6l-1.6,2.1l2.2,2.8
			C58.8,63.1,59.1,63.3,59.3,63.3L59.3,63.3z M81.4,57.1c0,0.1-0.1,0.2-0.1,0.3v3.8c0,0.5,0,0.8-0.1,1.1c-0.2,0.4-0.5,0.8-1,1
			c-0.5,0.2-1.1,0.3-1.9,0.3c-1.2,0-2.1-0.2-2.5-0.7c-0.2-0.2-0.3-0.4-0.4-0.7c-0.1-0.2-0.1-0.6-0.1-1v-3.8c0-0.1,0-0.2-0.1-0.3
			c0-0.1-0.1-0.1-0.2-0.1v-0.2h1.4v0.2c-0.1,0-0.2,0.1-0.2,0.1c0,0.1-0.1,0.2-0.1,0.3V61c0,0.4,0,0.7,0.1,0.9c0,0.2,0.1,0.3,0.3,0.5
			c0.3,0.3,1,0.5,1.9,0.5c1,0,1.7-0.2,2-0.6c0.1-0.1,0.2-0.3,0.2-0.4c0-0.2,0.1-0.5,0.1-0.9v-3.7c0-0.1,0-0.2-0.1-0.3
			c0-0.1-0.1-0.1-0.2-0.1v-0.2h1.3v0.2C81.5,57,81.4,57,81.4,57.1L81.4,57.1z M104.6,63.3v0.2h-1.5v-0.2c0.2,0,0.2-0.1,0.2-0.1
			c0,0-0.1-0.1-0.2-0.3l-1.5-2.4h-2.5v2.4c0,0.1,0,0.2,0.1,0.3c0,0.1,0.1,0.1,0.2,0.1v0.2H98v-0.2c0.1,0,0.2-0.1,0.2-0.1
			c0-0.1,0.1-0.2,0.1-0.3v-5.5c0-0.1,0-0.2-0.1-0.3c0-0.1-0.1-0.1-0.2-0.1v-0.2h3.7c0.5,0,0.9,0,1.2,0.1s0.5,0.1,0.8,0.3
			c0.2,0.1,0.4,0.3,0.5,0.6c0.2,0.3,0.2,0.6,0.2,0.9c0,0.5-0.2,0.9-0.5,1.2c-0.3,0.3-0.8,0.5-1.4,0.5l1.7,2.6
			C104.3,63.2,104.4,63.3,104.6,63.3L104.6,63.3z M102.6,59.8c0.2,0,0.4-0.1,0.5-0.2c0.3-0.2,0.5-0.5,0.5-1c0-0.5-0.2-0.8-0.5-1
			c-0.2-0.1-0.3-0.1-0.5-0.2c-0.2,0-0.5,0-0.9,0h-2.6v2.4h2.7C102.1,59.8,102.4,59.8,102.6,59.8L102.6,59.8z M126.1,57.1
			c-0.2,0.2-0.4,0.4-0.5,0.5l-2,2.8v2.4c0,0.1,0,0.2,0.1,0.3c0,0.1,0.1,0.1,0.2,0.1v0.2h-1.4v-0.2c0.1,0,0.2-0.1,0.2-0.1
			c0-0.1,0.1-0.2,0.1-0.3v-2.4l-2.2-2.8c-0.2-0.3-0.4-0.5-0.5-0.6c-0.1-0.1-0.2-0.1-0.3-0.2v-0.2h1.7v0.2c-0.2,0-0.2,0.1-0.2,0.2
			c0,0.1,0.1,0.3,0.2,0.5l1.7,2.3l1.7-2.4c0.1-0.2,0.2-0.3,0.2-0.4c0-0.1-0.1-0.1-0.2-0.2v-0.2h1.6v0.2
			C126.3,57,126.2,57,126.1,57.1L126.1,57.1z M155.1,58.4c0.1-0.1,0.1-0.2,0.1-0.3c0-0.1-0.1-0.2-0.4-0.3c-0.7-0.3-1.3-0.5-2.1-0.5
			c-0.6,0-1.1,0.1-1.6,0.3c-0.2,0.1-0.4,0.3-0.5,0.4c-0.1,0.2-0.2,0.4-0.2,0.6c0,0.2,0,0.3,0.1,0.5c0.1,0.1,0.2,0.3,0.4,0.3
			c0.2,0.1,0.4,0.1,0.6,0.2c0.2,0,0.6,0.1,1.2,0.1c0.7,0,1.3,0.1,1.6,0.1c0.3,0,0.6,0.1,0.8,0.2c0.6,0.3,0.8,0.8,0.8,1.4
			c0,0.6-0.3,1.1-0.8,1.5c-0.6,0.4-1.3,0.6-2.3,0.6c-0.6,0-1.1-0.1-1.5-0.2c-0.4-0.1-0.9-0.3-1.5-0.6c-0.2-0.1-0.3-0.1-0.3-0.1
			c0,0-0.1,0.1-0.2,0.2l-0.1-0.1l0.7-1.2l0.1,0.1c-0.1,0.1-0.1,0.2-0.1,0.3c0,0.1,0.2,0.3,0.6,0.5c0.4,0.2,0.7,0.3,1.1,0.4
			c0.3,0.1,0.7,0.1,1.1,0.1c0.8,0,1.4-0.2,1.9-0.5c0.3-0.2,0.4-0.5,0.4-0.9c0-0.4-0.2-0.7-0.7-0.9c-0.2-0.1-0.3-0.1-0.5-0.1
			c-0.2,0-0.6,0-1.4-0.1c-0.6,0-1-0.1-1.3-0.1c-0.3-0.1-0.6-0.2-0.8-0.3c-0.2-0.1-0.4-0.3-0.5-0.5c-0.1-0.2-0.2-0.5-0.2-0.8
			c0-0.5,0.2-0.9,0.5-1.2c0.3-0.2,0.6-0.4,1.1-0.6c0.5-0.1,1-0.2,1.5-0.2c0.4,0,0.9,0,1.2,0.1c0.4,0.1,0.8,0.2,1.3,0.5
			c0.1,0,0.2,0.1,0.2,0.1c0.1,0,0.1-0.1,0.2-0.2l0.1,0.1l-0.7,1.3L155.1,58.4L155.1,58.4z M178.6,63.1c0,0.1,0.1,0.1,0.2,0.1v0.2
			h-1.4v-0.2c0.1,0,0.2-0.1,0.2-0.1c0-0.1,0.1-0.2,0.1-0.3v-2.5h-4.6v2.5c0,0.1,0,0.2,0.1,0.3c0,0.1,0.1,0.1,0.3,0.1v0.2h-1.4v-0.2
			c0.1,0,0.2-0.1,0.3-0.1c0-0.1,0.1-0.2,0.1-0.3v-5.5c0-0.1,0-0.2-0.1-0.3c0-0.1-0.1-0.1-0.2-0.1v-0.2h1.4v0.2
			c-0.1,0-0.2,0.1-0.2,0.1c0,0.1-0.1,0.2-0.1,0.3v2.3h4.6v-2.3c0-0.1,0-0.2-0.1-0.3c0-0.1-0.1-0.1-0.2-0.1v-0.2h1.4v0.2
			c-0.1,0-0.2,0.1-0.2,0.1c0,0.1-0.1,0.2-0.1,0.3v5.5C178.6,63,178.6,63.1,178.6,63.1L178.6,63.1z M202.6,61.9
			c-0.4,0.6-0.9,1.1-1.7,1.3c-0.5,0.2-1.1,0.3-1.8,0.3c-1.2,0-2.1-0.3-2.8-0.9c-0.4-0.3-0.7-0.8-0.9-1.3c-0.2-0.4-0.2-0.8-0.2-1.3
			c0-0.7,0.2-1.3,0.5-1.8c0.4-0.6,0.9-1,1.7-1.3c0.5-0.2,1.1-0.3,1.8-0.3c1.2,0,2.1,0.3,2.8,0.9c0.4,0.3,0.7,0.8,0.9,1.3
			c0.2,0.4,0.2,0.8,0.2,1.3C203.1,60.8,203,61.4,202.6,61.9L202.6,61.9z M201.6,58.2c-0.3-0.3-0.7-0.5-1-0.6
			c-0.4-0.1-0.9-0.2-1.4-0.2c-1,0-1.8,0.3-2.4,0.8c-0.5,0.5-0.8,1.2-0.8,1.9c0,0.8,0.3,1.4,0.8,1.9c0.6,0.6,1.4,0.8,2.4,0.8
			c1,0,1.8-0.3,2.4-0.8c0.5-0.5,0.8-1.1,0.8-1.9C202.3,59.3,202.1,58.7,201.6,58.2L201.6,58.2z M225.2,59.8
			c-0.2,0.3-0.5,0.4-0.8,0.5c-0.3,0.1-0.8,0.1-1.4,0.1h-2.4v2.5c0,0.1,0,0.2,0.1,0.2c0,0.1,0.1,0.1,0.2,0.1v0.2h-1.4v-0.2
			c0.1,0,0.2-0.1,0.2-0.1c0-0.1,0.1-0.1,0.1-0.2v-5.6c0-0.1,0-0.2-0.1-0.2c0-0.1-0.1-0.1-0.2-0.1v-0.2h3.5c0.5,0,0.9,0,1.1,0.1
			c0.3,0.1,0.5,0.1,0.7,0.3c0.2,0.1,0.4,0.3,0.5,0.6c0.2,0.3,0.2,0.6,0.2,0.9C225.6,59.1,225.5,59.4,225.2,59.8L225.2,59.8z
			 M224.3,57.6c-0.1-0.1-0.3-0.1-0.5-0.2c-0.2,0-0.5,0-0.8,0h-2.5v2.4h2.5c0.4,0,0.6,0,0.8,0c0.2,0,0.3-0.1,0.5-0.2
			c0.3-0.2,0.5-0.5,0.5-1C224.8,58.1,224.7,57.8,224.3,57.6L224.3,57.6z M247.4,59.8c-0.2,0.3-0.5,0.4-0.8,0.5
			c-0.3,0.1-0.8,0.1-1.4,0.1h-2.4v2.5c0,0.1,0,0.2,0.1,0.2c0,0.1,0.1,0.1,0.2,0.1v0.2h-1.4v-0.2c0.1,0,0.2-0.1,0.2-0.1
			c0-0.1,0.1-0.1,0.1-0.2v-5.6c0-0.1,0-0.2-0.1-0.2c0-0.1-0.1-0.1-0.2-0.1v-0.2h3.5c0.5,0,0.9,0,1.1,0.1c0.3,0.1,0.5,0.1,0.7,0.3
			c0.2,0.1,0.4,0.3,0.5,0.6c0.2,0.3,0.2,0.6,0.2,0.9C247.8,59.1,247.7,59.4,247.4,59.8L247.4,59.8z M246.6,57.6
			c-0.1-0.1-0.3-0.1-0.5-0.2c-0.2,0-0.5,0-0.8,0h-2.5v2.4h2.5c0.4,0,0.6,0,0.8,0c0.2,0,0.3-0.1,0.5-0.2c0.3-0.2,0.5-0.5,0.5-1
			C247.1,58.1,246.9,57.8,246.6,57.6L246.6,57.6z M265,63.2c0,0.1,0.1,0.1,0.3,0.1v0.2h-1.4v-0.2c0.1,0,0.2-0.1,0.3-0.1
			c0-0.1,0.1-0.2,0.1-0.3v-5.5c0-0.1,0-0.2-0.1-0.3c0-0.1-0.1-0.1-0.2-0.1v-0.2h1.4v0.2c-0.1,0-0.2,0.1-0.2,0.1
			c0,0.1-0.1,0.2-0.1,0.3v5.5C265,63,265,63.1,265,63.2L265,63.2z M288.4,63.2c0,0.1,0.1,0.1,0.2,0.1v0.2h-1.5v-0.2
			c0.1,0,0.2-0.1,0.2-0.2c0-0.1-0.1-0.2-0.2-0.4l-4.4-5.1v5.2c0,0.1,0,0.2,0.1,0.3c0,0.1,0.1,0.1,0.2,0.1v0.2h-1.3v-0.2
			c0.1,0,0.2-0.1,0.3-0.1c0-0.1,0.1-0.2,0.1-0.3v-5.5c0-0.1,0-0.2-0.1-0.3c0-0.1-0.1-0.1-0.2-0.1v-0.2h1.9v0.2
			c-0.2,0.1-0.2,0.1-0.2,0.2c0,0.1,0.1,0.2,0.2,0.4l4,4.7v-4.9c0-0.1,0-0.2-0.1-0.3c0-0.1-0.1-0.1-0.2-0.1v-0.2h1.3v0.2
			c-0.1,0-0.2,0.1-0.2,0.1c0,0.1-0.1,0.2-0.1,0.3v5.5C288.4,63,288.4,63.1,288.4,63.2L288.4,63.2z M312,61.9c0,0.1,0.1,0.1,0.2,0.1
			v0.1c-0.4,0.3-0.7,0.6-1,0.8c-0.7,0.4-1.5,0.6-2.4,0.6c-1.1,0-2-0.3-2.7-0.9c-0.3-0.3-0.6-0.7-0.8-1.1c-0.2-0.5-0.3-1-0.3-1.5
			c0-0.8,0.2-1.4,0.7-2c0.4-0.5,1-0.9,1.6-1.2c0.5-0.2,1-0.3,1.6-0.3c0.5,0,0.9,0.1,1.4,0.2c0.4,0.1,0.9,0.3,1.3,0.6
			c0.1,0.1,0.2,0.1,0.3,0.1c0.1,0,0.1-0.1,0.2-0.2l0.1,0.1l-0.7,1.2l-0.1-0.1c0.1-0.1,0.1-0.2,0.1-0.2c0-0.1-0.2-0.2-0.5-0.4
			c-0.7-0.4-1.4-0.5-2.1-0.5c-0.8,0-1.5,0.2-2.1,0.7c-0.6,0.5-1,1.2-1,2.1c0,0.9,0.3,1.5,0.9,2.1c0.6,0.5,1.3,0.7,2.2,0.7
			c0.5,0,0.9-0.1,1.3-0.2c0.4-0.1,0.8-0.3,1.1-0.6v-1.2h-1.6c-0.1,0-0.2,0-0.3,0.1c-0.1,0-0.1,0.1-0.1,0.2h-0.2v-1.3h0.2
			c0,0.1,0.1,0.2,0.1,0.2c0.1,0,0.2,0.1,0.3,0.1h2.6v0.2c-0.1,0-0.2,0.1-0.2,0.1c0,0.1-0.1,0.2-0.1,0.3v0.9
			C312,61.8,312,61.9,312,61.9L312,61.9z M342.2,58.5c0-0.1,0-0.2,0-0.2c0-0.1-0.2-0.3-0.6-0.5c-0.6-0.3-1.2-0.4-1.9-0.4
			c-0.9,0-1.7,0.3-2.2,0.8c-0.6,0.5-0.9,1.2-0.9,2c0,0.8,0.3,1.5,0.9,2c0.6,0.5,1.3,0.8,2.1,0.8c0.8,0,1.6-0.2,2.2-0.7
			c0.3-0.2,0.4-0.4,0.4-0.5c0,0,0-0.1-0.1-0.2l0.1-0.1l0.9,1.1l-0.1,0.1c-0.1-0.1-0.2-0.1-0.2-0.1c0,0-0.1,0-0.2,0.1
			c-0.3,0.2-0.5,0.4-0.7,0.5c-0.2,0.1-0.4,0.2-0.6,0.3c-0.5,0.2-1,0.2-1.6,0.2c-1.1,0-2-0.3-2.7-0.9c-0.7-0.7-1.1-1.5-1.1-2.5
			c0-0.8,0.2-1.5,0.7-2.1c0.7-0.9,1.8-1.4,3.2-1.4c1,0,1.9,0.3,2.8,0.8c0.1,0,0.1,0,0.1,0c0,0,0.1-0.1,0.2-0.2l0.1,0.1l-0.7,1.2
			L342.2,58.5L342.2,58.5z M365.3,63.8c0-0.1-0.1-0.2-0.1-0.2c-0.1,0-0.2-0.1-0.3-0.1h-5.3v-0.2c0.1,0,0.2-0.1,0.3-0.1
			c0-0.1,0.1-0.2,0.1-0.3v-5.5c0-0.1,0-0.2-0.1-0.3c0-0.1-0.1-0.1-0.2-0.1v-0.2h1.4v0.2c-0.1,0-0.2,0.1-0.2,0.1
			c0,0.1-0.1,0.2-0.1,0.3v5.5h4.3c0.1,0,0.2,0,0.3-0.1c0.1,0,0.1-0.1,0.1-0.2h0.2v1.3H365.3L365.3,63.8z M387.6,57.1
			c0,0.1-0.1,0.2-0.1,0.3v3.8c0,0.5,0,0.8-0.1,1.1c-0.2,0.4-0.5,0.8-1,1c-0.5,0.2-1.1,0.3-1.9,0.3c-1.2,0-2.1-0.2-2.5-0.7
			c-0.2-0.2-0.3-0.4-0.4-0.7c-0.1-0.2-0.1-0.6-0.1-1v-3.8c0-0.1,0-0.2-0.1-0.3c0-0.1-0.1-0.1-0.2-0.1v-0.2h1.4v0.2
			c-0.1,0-0.2,0.1-0.2,0.1c0,0.1-0.1,0.2-0.1,0.3V61c0,0.4,0,0.7,0.1,0.9c0,0.2,0.1,0.3,0.3,0.5c0.3,0.3,1,0.5,1.9,0.5
			c1,0,1.7-0.2,2-0.6c0.1-0.1,0.2-0.3,0.2-0.4c0-0.2,0.1-0.5,0.1-0.9v-3.7c0-0.1,0-0.2-0.1-0.3c0-0.1-0.1-0.1-0.2-0.1v-0.2h1.3v0.2
			C387.8,57,387.7,57,387.6,57.1L387.6,57.1z M409.6,60c0.8,0.3,1.2,0.8,1.2,1.6c0,0.4-0.1,0.7-0.3,1c-0.2,0.3-0.5,0.5-0.8,0.6
			c-0.3,0.1-0.8,0.2-1.5,0.2h-3.9v-0.2c0.1,0,0.2-0.1,0.2-0.1c0-0.1,0.1-0.2,0.1-0.3v-5.5c0-0.1,0-0.2-0.1-0.3
			c0-0.1-0.1-0.1-0.2-0.1v-0.2h4c0.4,0,0.7,0,1,0.1c0.3,0.1,0.5,0.2,0.7,0.3c0.4,0.3,0.7,0.8,0.7,1.4
			C410.5,59.2,410.2,59.7,409.6,60L409.6,60z M405.3,62.8h2.7c0.4,0,0.7,0,0.9,0c0.2,0,0.4-0.1,0.5-0.1c0.2-0.1,0.3-0.2,0.5-0.4
			c0.1-0.2,0.2-0.4,0.2-0.6c0-0.3-0.1-0.6-0.3-0.8c-0.2-0.2-0.4-0.3-0.6-0.4c-0.2-0.1-0.6-0.1-1.1-0.1h-2.6V62.8L405.3,62.8z
			 M409.5,57.8c-0.1-0.2-0.3-0.3-0.6-0.3c-0.2-0.1-0.6-0.1-1.1-0.1h-2.5v2.2h2.6c0.4,0,0.6,0,0.8,0c0.2,0,0.3-0.1,0.5-0.1
			c0.2-0.1,0.3-0.2,0.4-0.4c0.1-0.2,0.2-0.4,0.2-0.6C409.8,58.3,409.7,58,409.5,57.8L409.5,57.8z"/>
	</defs>
	<linearGradient id="SVGID_2_" gradientUnits="userSpaceOnUse" x1="209.3378" y1="63.7505" x2="209.3378" y2="1.680746e-009">
		<stop  offset="3.921569e-003" style="stop-color:#9D9D9D"/>
		<stop  offset="1" style="stop-color:#F3F3F3"/>
	</linearGradient>
	<use xlink:href="#SVGID_1_"  overflow="visible" fill="url(#SVGID_2_)"/>
	<clipPath id="SVGID_3_">
		<use xlink:href="#SVGID_1_"  overflow="visible"/>
	</clipPath>
	<g transform="matrix(1 0 0 1 4.768372e-007 0)" display="none" clip-path="url(#SVGID_3_)">
		
			<image display="inline" overflow="visible" width="4543" height="816" xlink:href="38C3402E.jpg"  transform="matrix(9.448818e-002 0 0 9.448824e-002 -7.7784 -4.5472)">
		</image>
	</g>
</g>
</svg>
