<?xml version="1.0" encoding="iso-8859-1"?>
<!-- Generator: Adobe Illustrator 18.1.0, SVG Export Plug-In . SVG Version: 6.00 Build 0)  -->
<svg version="1.1" id="&#x421;&#x43B;&#x43E;&#x439;_1"
	 xmlns="http://www.w3.org/2000/svg" xmlns:xlink="http://www.w3.org/1999/xlink" x="0px" y="0px" viewBox="0 0 708 708"
	 enable-background="new 0 0 708 708" xml:space="preserve">
<g>
	<path fill="#F68235" d="M354,35c43.1,0,84.9,8.4,124.2,25.1c38,16.1,72.1,39.1,101.4,68.4c29.3,29.3,52.3,63.4,68.4,101.4
		C664.6,269.1,673,310.9,673,354s-8.4,84.9-25.1,124.2c-16.1,38-39.1,72.1-68.4,101.4c-29.3,29.3-63.4,52.3-101.4,68.4
		C438.9,664.6,397.1,673,354,673s-84.9-8.4-124.2-25.1c-38-16.1-72.1-39.1-101.4-68.4c-29.3-29.3-52.3-63.4-68.4-101.4
		C43.4,438.9,35,397.1,35,354s8.4-84.9,25.1-124.2c16.1-38,39.1-72.1,68.4-101.4c29.3-29.3,63.4-52.3,101.4-68.4
		C269.1,43.4,310.9,35,354,35 M354,0C158.5,0,0,158.5,0,354s158.5,354,354,354s354-158.5,354-354S549.5,0,354,0L354,0z"/>
</g>
<path fill="#F68235" d="M353.7,377.6c-40.3,0-73-39.2-73-87.4s32.7-84,73-84c40.3,0,73,35.8,73,84S394,377.6,353.7,377.6
	L353.7,377.6z M240.1,495.8c0,0-15.5,1-22.3-8.4c-3.7-5.1-1.1-15.4,1.4-21.1l6.2-14.1c0,0,17-38.2,36.5-60.3
	c11.9-13.6,26.1-10.5,35.3-6.1c5.7,2.7,12,10.6,16.7,14.8c6.4,5.8,17.8,12.3,36.4,12.7h11.4c18.6-0.4,29.9-6.9,36.4-12.7
	c4.7-4.2,10.9-12.3,16.5-15.1c8.4-4.2,21.3-6.8,32.9,6.4c19.4,22.1,34.8,60.9,34.8,60.9l6.3,13.8c2.6,5.7,5.3,15.9,1.7,21.1
	c-6.4,9.2-20.7,8-20.7,8H240.1z M240.1,495.8"/>
</svg>
