<?xml version="1.0" encoding="iso-8859-1"?>
<!-- Generator: Adobe Illustrator 18.1.0, SVG Export Plug-In . SVG Version: 6.00 Build 0)  -->
<svg version="1.1" id="&#x421;&#x43B;&#x43E;&#x439;_1"
	 xmlns="http://www.w3.org/2000/svg" xmlns:xlink="http://www.w3.org/1999/xlink" x="0px" y="0px" viewBox="0 0 708 708"
	 enable-background="new 0 0 708 708" xml:space="preserve">
<g>
	<path fill="#F68235" d="M354,35c43.1,0,84.9,8.4,124.2,25.1c38,16.1,72.1,39.1,101.4,68.4c29.3,29.3,52.3,63.4,68.4,101.4
		C664.6,269.1,673,310.9,673,354s-8.4,84.9-25.1,124.2c-16.1,38-39.1,72.1-68.4,101.4c-29.3,29.3-63.4,52.3-101.4,68.4
		C438.9,664.6,397.1,673,354,673s-84.9-8.4-124.2-25.1c-38-16.1-72.1-39.1-101.4-68.4c-29.3-29.3-52.3-63.4-68.4-101.4
		C43.4,438.9,35,397.1,35,354s8.4-84.9,25.1-124.2c16.1-38,39.1-72.1,68.4-101.4c29.3-29.3,63.4-52.3,101.4-68.4
		C269.1,43.4,310.9,35,354,35 M354,0C158.5,0,0,158.5,0,354s158.5,354,354,354s354-158.5,354-354S549.5,0,354,0L354,0z"/>
</g>
<g>
	<path fill="#F68235" d="M525.7,445.8c-1-2.9-7.2-7.3-18.6-13c-3.1-1.8-7.5-4.2-13.2-7.3c-5.7-3.1-10.9-6-15.6-8.6
		c-4.7-2.6-9-5.1-13.1-7.6c-0.6-0.5-2.7-1.9-6.1-4.3c-3.4-2.4-6.3-4.1-8.7-5.3c-2.4-1.1-4.7-1.7-7-1.7c-3.3,0-7.3,2.3-12.2,7
		c-4.9,4.7-9.4,9.7-13.5,15.2c-4.1,5.5-8.4,10.5-13,15.2c-4.6,4.7-8.3,7-11.3,7c-1.5,0-3.3-0.4-5.5-1.2c-2.2-0.8-3.9-1.5-5-2.1
		c-1.1-0.6-3.1-1.7-5.9-3.4c-2.8-1.7-4.3-2.7-4.7-2.8c-22.4-12.4-41.5-26.6-57.5-42.6c-16-16-30.2-35.2-42.6-57.6
		c-0.2-0.3-1.1-1.9-2.8-4.7c-1.7-2.8-2.9-4.7-3.4-5.9c-0.6-1.1-1.3-2.8-2.1-5c-0.8-2.2-1.2-4-1.2-5.5c0-2.9,2.3-6.7,7-11.3
		c4.7-4.6,9.7-8.9,15.2-13c5.5-4.1,10.5-8.6,15.2-13.5c4.7-4.9,7-9,7-12.3c0-2.3-0.6-4.6-1.7-7c-1.1-2.4-2.9-5.3-5.3-8.7
		c-2.4-3.4-3.8-5.5-4.3-6.1c-2.4-4.1-5-8.4-7.6-13.1c-2.6-4.7-5.5-9.8-8.6-15.6c-3.1-5.7-5.5-10.1-7.3-13.2
		c-5.7-11.4-10-17.6-13-18.6c-1.1-0.5-2.8-0.7-5.1-0.7c-4.4,0-10.2,0.8-17.3,2.5c-7.1,1.6-12.7,3.3-16.8,5.1
		c-8.2,3.4-16.8,13.4-26,29.9c-8.3,15.3-12.5,30.5-12.5,45.5c0,4.4,0.3,8.7,0.9,12.9c0.6,4.2,1.6,8.9,3.1,14.1
		c1.5,5.2,2.7,9.1,3.6,11.6c0.9,2.5,2.6,7.1,5,13.6c2.5,6.5,3.9,10.5,4.4,12c5.7,16,12.5,30.3,20.3,42.9
		c12.9,20.9,30.5,42.5,52.8,64.8c22.3,22.3,43.9,39.9,64.8,52.8c12.6,7.8,26.9,14.6,42.9,20.3c1.5,0.5,5.5,2,12,4.4
		c6.5,2.4,11.1,4.1,13.6,5c2.5,0.9,6.4,2.1,11.6,3.6c5.2,1.5,9.9,2.5,14.1,3.1c4.2,0.6,8.4,0.9,12.8,0.9c15,0,30.2-4.2,45.6-12.5
		c16.5-9.1,26.4-17.8,29.9-26c1.8-4.1,3.5-9.7,5.2-16.8c1.6-7.1,2.5-12.9,2.5-17.3C526.4,448.6,526.2,446.9,525.7,445.8L525.7,445.8
		z M525.7,445.8"/>
</g>
</svg>
