<?xml version="1.0" standalone="no"?>
<!DOCTYPE svg PUBLIC "-//W3C//DTD SVG 20010904//EN"
 "http://www.w3.org/TR/2001/REC-SVG-20010904/DTD/svg10.dtd">
<svg version="1.0" xmlns="http://www.w3.org/2000/svg"
 width="40" height="40" viewBox="10 -10 130.000000 130.000000"
 preserveAspectRatio="xMidYMid meet">

<g transform="translate(0.000000,130.000000) scale(0.100000, -0.100000)"
fill="#7c7c7c" stroke="none">
<path d="M640 1310 c-114 -20 -248 -94 -320 -178 -284 -331 -112 -831 315
-919 271 -55 550 114 636 387 28 89 28 231 0 320 -86 271 -355 438 -631 390z
m255 -82 c335 -110 447 -543 207 -801 -168 -181 -437 -213 -641 -76 -77 52
-125 106 -166 192 -70 143 -70 288 -1 432 106 225 362 332 601 253z"/>
<path d="M869 906 c-68 -74 -127 -135 -131 -135 -4 -1 -48 22 -99 49 -51 28
-100 50 -111 50 -29 0 -35 -30 -10 -51 41 -32 213 -120 230 -117 9 2 79 69
155 150 138 148 157 179 111 186 -15 2 -52 -31 -145 -132z"/>
</g>
</svg>
